<?xml version="1.0" encoding="UTF-8"?>
<!DOCTYPE svg PUBLIC "-//W3C//DTD SVG 1.1//EN" "http://www.w3.org/Graphics/SVG/1.1/DTD/svg11.dtd">
<svg xmlns="http://www.w3.org/2000/svg" version="1.1" width="29px" height="28px" style="shape-rendering:geometricPrecision; text-rendering:geometricPrecision; image-rendering:optimizeQuality; fill-rule:evenodd; clip-rule:evenodd" xmlns:xlink="http://www.w3.org/1999/xlink">
<g><path style="opacity:0.954" fill="#ff4c25" d="M 9.5,-0.5 C 11.1667,-0.5 12.8333,-0.5 14.5,-0.5C 14.5,1.5 14.5,3.5 14.5,5.5C 11.3855,5.55481 9.05217,6.88814 7.5,9.5C 5.66754,8.75152 4.00087,7.75152 2.5,6.5C 3.83965,3.16035 6.17298,0.827014 9.5,-0.5 Z"/></g>
<g><path style="opacity:0.917" fill="#d83e20" d="M 14.5,-0.5 C 16.1667,-0.5 17.8333,-0.5 19.5,-0.5C 25.5248,1.53196 25.8581,4.19863 20.5,7.5C 18.677,6.25279 16.677,5.58613 14.5,5.5C 14.5,3.5 14.5,1.5 14.5,-0.5 Z"/></g>
<g><path style="opacity:0.963" fill="#fdd300" d="M 2.5,6.5 C 4.00087,7.75152 5.66754,8.75152 7.5,9.5C 6.16667,12.1667 6.16667,14.8333 7.5,17.5C 5.66754,18.2485 4.00087,19.2485 2.5,20.5C 0.982744,18.5379 0.316078,16.2046 0.5,13.5C 0.316078,10.7954 0.982744,8.4621 2.5,6.5 Z"/></g>
<g><path style="opacity:0.871" fill="#167ee5" d="M 28.5,10.5 C 28.5,13.1667 28.5,15.8333 28.5,18.5C 27.173,21.827 24.8397,24.1604 21.5,25.5C 20.7515,23.6675 19.7515,22.0009 18.5,20.5C 19.8118,19.8549 20.8118,18.8549 21.5,17.5C 19.2573,16.5258 16.924,16.1924 14.5,16.5C 14.5,14.5 14.5,12.5 14.5,10.5C 19.1667,10.5 23.8333,10.5 28.5,10.5 Z"/></g>
<g><path style="opacity:0.935" fill="#16ac45" d="M 7.5,17.5 C 10.3362,21.3654 14.0028,22.3654 18.5,20.5C 19.7515,22.0009 20.7515,23.6675 21.5,25.5C 20.8333,26.1667 20.1667,26.8333 19.5,27.5C 16.1667,27.5 12.8333,27.5 9.5,27.5C 6.17298,26.173 3.83965,23.8397 2.5,20.5C 4.00087,19.2485 5.66754,18.2485 7.5,17.5 Z"/></g>
</svg>
