<?xml version="1.0" encoding="UTF-8"?>
<!DOCTYPE svg PUBLIC "-//W3C//DTD SVG 1.1//EN" "http://www.w3.org/Graphics/SVG/1.1/DTD/svg11.dtd">
<svg xmlns="http://www.w3.org/2000/svg" version="1.1" width="267px" height="292px" style="shape-rendering:geometricPrecision; text-rendering:geometricPrecision; image-rendering:optimizeQuality; fill-rule:evenodd; clip-rule:evenodd" xmlns:xlink="http://www.w3.org/1999/xlink">
<g><path style="opacity:0.775" fill="#fefffe" d="M 129.5,3.5 C 139.236,3.30236 143.07,7.96902 141,17.5C 139.981,18.6872 138.814,19.6872 137.5,20.5C 137.167,25 136.833,29.5 136.5,34C 137.15,54.8294 137.65,75.6627 138,96.5C 146.723,68.8818 162.889,46.7152 186.5,30C 198.463,22.4257 211.463,19.4257 225.5,21C 234.035,23.9553 236.868,29.7886 234,38.5C 227.333,47.8333 220.667,57.1667 214,66.5C 211.745,71.7594 209.578,77.0927 207.5,82.5C 223.477,80.8773 237.977,84.8773 251,94.5C 257.6,101.175 259.1,108.841 255.5,117.5C 248.801,123.608 241.968,129.608 235,135.5C 228.413,144.674 223.413,154.674 220,165.5C 214.991,184.539 209.658,203.539 204,222.5C 198.934,236.228 190.768,247.728 179.5,257C 167.315,261.133 162.148,256.966 164,244.5C 171.33,232.509 178.663,220.509 186,208.5C 193.378,187.972 199.378,166.972 204,145.5C 207.099,135.757 211.099,126.424 216,117.5C 217.96,113.208 220.96,109.875 225,107.5C 228.205,108.798 229.205,111.132 228,114.5C 220.99,123.535 215.656,133.535 212,144.5C 206.728,167.974 200.061,190.974 192,213.5C 186.744,223.016 180.744,232.016 174,240.5C 172.142,243.572 170.976,246.905 170.5,250.5C 175.546,250.643 179.546,248.643 182.5,244.5C 188.196,237.933 192.696,230.6 196,222.5C 202.509,201.933 208.509,181.266 214,160.5C 217.218,148.499 222.884,137.832 231,128.5C 237.185,123.738 243.185,118.738 249,113.5C 250.888,109.139 250.222,105.139 247,101.5C 230.431,88.5102 212.265,86.0102 192.5,94C 175.491,102.34 162.324,114.84 153,131.5C 147.524,141.624 142.69,152.124 138.5,163C 147.269,195.253 150.436,228.086 148,261.5C 147.427,268.126 145.76,274.459 143,280.5C 137.667,287.167 132.333,287.167 127,280.5C 124.456,275.452 122.789,270.119 122,264.5C 121.333,247.833 121.333,231.167 122,214.5C 123.896,197.495 126.729,180.662 130.5,164C 123.33,139.658 110.33,118.992 91.5,102C 73.1416,89.3164 53.4749,86.6497 32.5,94C 25.9475,97.2097 21.6142,102.21 19.5,109C 19.5419,110.967 20.0419,112.801 21,114.5C 33.4582,122.289 43.1249,132.623 50,145.5C 58.6515,172.452 66.9849,199.452 75,226.5C 79.3809,235.774 85.5476,243.607 93.5,250C 95.1341,250.494 96.8008,250.66 98.5,250.5C 98.3822,247.312 97.5489,244.312 96,241.5C 87.4794,231.129 80.4794,219.796 75,207.5C 67.8282,184.306 61.1616,160.973 55,137.5C 51.4402,129.379 47.1069,121.712 42,114.5C 40.0972,108.399 41.9306,106.566 47.5,109C 53.6116,118.333 58.7782,128.166 63,138.5C 68.9626,157.971 74.2959,177.638 79,197.5C 80.3333,200.833 81.6667,204.167 83,207.5C 89.8313,219.834 97.1647,231.834 105,243.5C 106.024,248.098 105.524,252.432 103.5,256.5C 97.0589,259.228 91.0589,258.395 85.5,254C 73.5573,241.284 65.3906,226.451 61,209.5C 56.3776,188.661 50.3776,168.327 43,148.5C 40.9289,144.697 38.5956,141.03 36,137.5C 29.5858,130.913 22.7525,124.913 15.5,119.5C 10.1059,112.071 10.2726,104.738 16,97.5C 22.3899,90.553 30.2232,86.053 39.5,84C 47.3065,82.7947 54.9732,82.2947 62.5,82.5C 57.3859,67.6102 49.2193,54.6102 38,43.5C 31.6689,33.3981 33.8356,25.8981 44.5,21C 59.0799,19.5141 72.4132,22.8475 84.5,31C 98.4267,40.2592 109.593,52.0925 118,66.5C 122.784,75.9764 127.117,85.6431 131,95.5C 131.09,73.1673 130.756,50.834 130,28.5C 130.291,24.2586 128.624,21.2586 125,19.5C 121.865,12.6331 123.365,7.29975 129.5,3.5 Z M 198.5,83.5 C 199.449,69.0268 203.782,55.6934 211.5,43.5C 210.793,39.9499 208.793,38.9499 205.5,40.5C 202.471,44.1289 199.971,48.1289 198,52.5C 194.099,63.9048 191.266,75.5715 189.5,87.5C 170.337,96.161 155.837,109.828 146,128.5C 141.786,136.261 138.119,144.261 135,152.5C 126.892,130.629 114.059,111.962 96.5,96.5C 90.9979,92.9145 85.3312,89.5812 79.5,86.5C 78.0609,71.352 73.8943,57.0186 67,43.5C 65.1482,39.9233 62.4815,38.9233 59,40.5C 58.8333,41.5 58.6667,42.5 58.5,43.5C 65.6442,55.8195 69.9776,69.1528 71.5,83.5C 67.9282,75.9889 64.4282,68.3223 61,60.5C 55,52.5 49,44.5 43,36.5C 41.8407,29.6577 44.8407,26.6577 52,27.5C 71.2797,30.4779 87.2797,39.4779 100,54.5C 106.338,61.8455 111.671,69.8455 116,78.5C 122.498,93.015 127.998,107.848 132.5,123C 134.259,123.798 135.926,123.631 137.5,122.5C 142.922,101.556 151.256,81.8894 162.5,63.5C 173.684,47.4256 188.35,35.9256 206.5,29C 212.541,27.3232 218.541,27.3232 224.5,29C 225.833,30.3333 227.167,31.6667 228.5,33C 222.752,41.7563 216.586,50.2563 210,58.5C 205.66,66.7241 201.827,75.0575 198.5,83.5 Z M 134.5,179.5 C 139.54,199.534 141.873,220.034 141.5,241C 141.939,252.78 140.439,264.28 137,275.5C 134.474,278.063 132.807,277.397 132,273.5C 129.054,262.708 127.887,251.708 128.5,240.5C 128.819,219.986 130.819,199.653 134.5,179.5 Z"/></g>
</svg>
