<?xml version="1.0" encoding="UTF-8"?>
<svg version="1.1" xmlns="http://www.w3.org/2000/svg" width="1619" height="566">
<path d="M0 0 C6.15785018 6.02679724 10.5534961 12.77338796 14.78125 20.24124146 C15.84847986 22.12604291 16.92838847 24.00307249 18.01171875 25.87866211 C19.16395439 27.8737875 20.31545847 29.86929402 21.46328735 31.86695862 C25.73900705 39.30696474 30.11474525 46.68669816 34.5 54.0625 C34.89531921 54.72852234 35.29063843 55.39454468 35.69793701 56.08074951 C41.73128887 66.24514467 47.84991756 76.35522976 54.00964355 86.44342041 C58.96227501 94.56040739 63.76712176 102.74336794 68.42733288 111.03133011 C72.08598372 117.49515406 75.93029984 123.82649921 79.859375 130.12890625 C80.45347168 131.08510864 81.04756836 132.04131104 81.65966797 133.02648926 C83.1048414 135.3519972 84.55163641 137.67647813 86 140 C86.00358253 139.05523269 86.00358253 139.05523269 86.00723743 138.09137917 C86.06649456 122.73258294 86.14211263 107.37396624 86.23571491 92.01534462 C86.28059079 84.58788094 86.32002413 77.16046434 86.34643555 69.73291016 C86.36948239 63.25550753 86.40295437 56.7782549 86.44870156 50.30097139 C86.4725442 46.87449033 86.49133137 43.44815699 86.49761391 40.021595 C86.50727158 36.18686261 86.53535277 32.35266613 86.56762695 28.51806641 C86.56619186 27.39452759 86.56475677 26.27098877 86.5632782 25.11340332 C86.68617037 14.75226033 88.47808434 5.57439414 96 -2 C104.16395965 -8.09646337 113.29780357 -7.51264052 123 -7 C129.54976988 -5.92357542 134.64598513 -3.02299111 139 2 C145.31286397 11.52847905 145.32312221 21.94271298 145.4140625 33 C145.4328006 34.44589307 145.45237593 35.89177551 145.4727478 37.33764648 C145.52379637 41.11864924 145.56356683 44.89968735 145.60089111 48.68084717 C145.6411031 52.54903714 145.69211645 56.41708356 145.7421875 60.28515625 C145.83862321 67.85667189 145.92313001 75.42825774 146 83 C147.44943227 81.39565329 148.89799678 79.79052258 150.34619141 78.18505859 C151.15295319 77.2912851 151.95971497 76.3975116 152.79092407 75.47665405 C155.07041247 72.9210587 157.24752356 70.30822539 159.375 67.625 C163.05636689 63.07139288 166.92774473 58.76417484 170.91357422 54.48095703 C173.90412641 51.24823796 176.73771685 47.93312334 179.5 44.5 C182.69931722 40.52370574 186.02584945 36.73331702 189.5 33 C193.78263138 28.39744873 197.79168895 23.63827416 201.734375 18.73828125 C204.9350516 14.86987729 208.32590313 11.18944429 211.73828125 7.5078125 C214.0297292 5.03228926 214.0297292 5.03228926 216.0390625 2.3515625 C217.93652832 0.07611544 219.53443719 -1.2497238 222.0625 -2.75 C222.73410156 -3.15734375 223.40570312 -3.5646875 224.09765625 -3.984375 C229.72505301 -6.98873467 236.37746946 -6.89706198 242.4765625 -5.38671875 C249.33149562 -2.71305927 253.92404446 2.13117377 257.375 8.5625 C259.62823534 17.35011783 258.91785832 23.93213554 254.5625 31.875 C251.3256533 36.98414038 247.2435062 41.03452834 242.87890625 45.1640625 C239.99811066 47.92285029 237.41998828 50.90859822 234.81420898 53.92529297 C231.87935397 57.28155698 228.8125628 60.51061951 225.75 63.75 C220.34889148 69.4868045 214.98969752 75.2564645 209.67578125 81.07421875 C207.29874782 83.67333998 204.91403111 86.26489602 202.52294922 88.85107422 C201.51633769 89.94095147 200.51142219 91.03239788 199.50830078 92.12548828 C196.95928542 94.90022819 194.3862758 97.64411764 191.76171875 100.34765625 C190.98731445 101.15783203 190.98731445 101.15783203 190.19726562 101.984375 C189.21256758 103.01365834 188.2181289 104.03373615 187.21289062 105.04296875 C185.71277032 106.56733451 185.71277032 106.56733451 184 109 C184.35156326 112.28790604 185.70117986 114.17494342 187.80859375 116.65234375 C188.6739978 117.68307007 188.6739978 117.68307007 189.55688477 118.73461914 C190.17748779 119.46156982 190.79809082 120.18852051 191.4375 120.9375 C192.72822615 122.47516756 194.01727876 124.01424138 195.3046875 125.5546875 C195.93858398 126.31233398 196.57248047 127.06998047 197.22558594 127.85058594 C199.57970466 130.70221792 201.82605829 133.61748269 204.0625 136.5625 C208.29995059 142.13370554 212.6846506 147.56871809 217.11352539 152.98852539 C220.62347642 157.28956736 224.0842413 161.62385226 227.5 166 C231.44185868 171.04854757 235.45070133 176.0372452 239.5 181 C268.03370007 216.02381754 268.03370007 216.02381754 267.3125 228.84765625 C266.21440151 236.41080963 262.67744352 241.91958923 257 247 C250.83624661 250.99034034 244.37582858 252.90934873 237 252 C227.5920724 249.32861315 221.68186969 244.32959668 215.875 236.625 C214.91481504 235.3770248 213.95385031 234.12964925 212.9921875 232.8828125 C212.50073242 232.2424707 212.00927734 231.60212891 211.50292969 230.94238281 C209.04243736 227.76244828 206.52009218 224.63275641 204 221.5 C199.6805297 216.11629225 195.40078068 210.70330213 191.14453125 205.26953125 C187.7894776 200.99159751 184.4015606 196.74102029 181 192.5 C176.68496245 187.12006887 172.40695687 181.71300792 168.15551758 176.28271484 C164.22145891 171.26464541 160.23860617 166.28645146 156.234375 161.32421875 C153.70781416 158.18176496 151.23791552 155.00653291 148.82348633 151.77685547 C148.02640007 150.71143021 148.02640007 150.71143021 147.21321106 149.6244812 C146.81285141 149.0884024 146.41249176 148.55232361 146 148 C145.99413376 148.98003998 145.98826752 149.96007996 145.98222351 150.96981812 C145.924833 160.23803186 145.85198699 169.50601465 145.76428509 178.77399254 C145.71969352 183.53795023 145.68041308 188.30182462 145.65356445 193.06591797 C145.6274191 197.66967545 145.58693843 202.27311039 145.53681374 206.87666702 C145.52022061 208.62674551 145.50865956 210.3768797 145.50238609 212.1270256 C145.40565699 236.64736681 145.40565699 236.64736681 136.36328125 245.625 C128.56015832 252.66642981 120.73274263 253.31457382 110.5 252.8125 C101.7470023 252.0056309 95.35196371 249.12676262 89 243 C86.9375 240.29296875 86.9375 240.29296875 85 237.1875 C84.63100586 236.59839844 84.26201172 236.00929688 83.88183594 235.40234375 C78.95422105 227.44816314 74.30278253 219.32227454 69.61328125 211.2265625 C66.25193246 205.42443758 62.85350442 199.64508155 59.4375 193.875 C58.90543945 192.97587891 58.37337891 192.07675781 57.82519531 191.15039062 C56.7532918 189.33940022 55.68118954 187.52852743 54.60888672 185.71777344 C51.90299628 181.14691269 49.20174737 176.57331041 46.5 172 C45.4166886 170.16665371 44.33335527 168.33332037 43.25 166.5 C36.75 155.5 36.75 155.5 35.12451172 152.74902344 C34.04298151 150.91884158 32.96127626 149.08876315 31.87939453 147.25878906 C29.14201619 142.62807798 26.40786455 137.9955138 23.6796875 133.359375 C23.12603516 132.41964844 22.57238281 131.47992188 22.00195312 130.51171875 C20.97602656 128.77022996 19.95114232 127.02812632 18.92773438 125.28515625 C15.43865473 119.36626482 11.86993675 113.49800195 8.28369141 107.63769531 C7.77465775 106.80533356 7.26562408 105.9729718 6.74116516 105.11538696 C5.49438165 103.07675833 4.24731966 101.03830062 3 99 C2.99853344 99.67015294 2.99706688 100.34030588 2.99555588 101.03076649 C2.95842365 117.37466663 2.8993244 133.71832706 2.81609726 150.06205463 C2.77637216 157.96593354 2.74394666 165.86971382 2.72900391 173.77368164 C2.71595337 180.66679331 2.68890257 187.55968739 2.64538693 194.45267648 C2.62284803 198.0988841 2.60708473 201.7448241 2.60811615 205.39110756 C2.60900728 209.47238751 2.57862696 213.55288421 2.54589844 217.6340332 C2.55344398 219.42615738 2.55344398 219.42615738 2.56114197 221.25448608 C2.45308976 229.99779857 0.69105619 237.23890059 -3.625 244.875 C-9.60272852 250.22349394 -16.95406432 253.25452872 -25 253 C-31.82156848 252.24076978 -38.21477195 250.36922748 -42.6953125 244.94921875 C-47.62188948 237.86875183 -49.30093559 231.82138169 -49.26069641 223.29742432 C-49.26452196 222.43364033 -49.26834751 221.56985633 -49.27228898 220.67989707 C-49.28258888 217.79206959 -49.2786325 214.90444205 -49.2746582 212.01660156 C-49.27900642 209.94329647 -49.28418993 207.86999299 -49.29014587 205.79669189 C-49.30353731 200.16843797 -49.30411423 194.5402512 -49.30158257 188.91198444 C-49.30051267 184.21037943 -49.30539688 179.50878799 -49.310188 174.80718589 C-49.32128431 163.7116162 -49.32172029 152.61608036 -49.31567383 141.52050781 C-49.30963705 130.08367193 -49.3219373 118.64695916 -49.3432439 107.21014428 C-49.36087499 97.38403803 -49.36685875 87.55797091 -49.36360615 77.73184943 C-49.36179511 71.86634713 -49.36441151 66.00093259 -49.37832069 60.13544464 C-49.39091839 54.61637253 -49.38893643 49.09749181 -49.37590981 43.57842255 C-49.37354848 41.55724523 -49.37626273 39.53605436 -49.38453293 37.51489258 C-49.43609571 23.92949166 -49.48403823 11.02457252 -39.58984375 0.5 C-28.59841793 -9.34831753 -11.22224189 -9.41776597 0 0 Z " fill="#FFFFFF" transform="translate(999,172)"/>
<path d="M0 0 C5.678021 3.39001993 8.77059551 7.89228876 11.66015625 13.7421875 C12.1731855 14.77758163 12.1731855 14.77758163 12.69657898 15.83389282 C17.61672979 26.05035594 21.3851146 36.74988674 25.3125 47.375 C26.17957354 49.70000224 27.04767475 52.02462147 27.91674805 54.34887695 C29.26064638 57.94367224 30.60381181 61.53872535 31.94367981 65.13502502 C36.27784795 76.76821714 40.67679537 88.37638285 45.09188843 99.97906494 C46.2772118 103.09474329 47.46071346 106.21110798 48.64379883 109.32763672 C53.0422496 120.90623376 57.49011001 132.46434631 62 144 C63.96502071 141.05246894 65.0566426 138.47331611 66.29638672 135.16650391 C66.75292633 133.95452332 67.20946594 132.74254272 67.67984009 131.49383545 C68.179862 130.15477164 68.6798088 128.81567978 69.1796875 127.4765625 C69.70509767 126.07744928 70.23085188 124.6784652 70.75692749 123.27960205 C71.8808235 120.28906725 73.00238353 117.29767062 74.12219238 114.30560303 C75.87847151 109.61356763 77.64137909 104.92404016 79.40527344 100.23486328 C84.22733679 87.41149415 89.04046952 74.58482102 93.82429695 61.74713326 C95.87289305 56.24965325 97.92814737 50.75467928 99.9854126 45.26043701 C101.22289975 41.94755031 102.45114475 38.63133381 103.67919922 35.31494141 C115.02709448 4.88490811 115.02709448 4.88490811 127.71875 -2.01953125 C135.61540718 -5.41347124 145.96736228 -5.22755002 153.91015625 -2.08203125 C161.94534625 2.07824469 166.35758861 8.44322324 169.41273689 16.90305996 C172.38508354 27.51641642 172.68190469 38.97811816 173.51220703 49.92553711 C173.65003195 51.69472313 173.78826807 53.46387716 173.92687988 55.23300171 C174.29929199 60.00385761 174.66537381 64.77517846 175.02979517 69.54665065 C175.33617575 73.55172548 175.64545633 77.55657447 175.95463836 81.56143385 C176.68522378 91.02668382 177.41039363 100.49233826 178.13232422 109.95825195 C178.87288872 119.66705052 179.62328194 129.37505428 180.37846863 139.08272547 C181.0300152 147.4632668 181.67496043 155.8442995 182.3148793 164.22573668 C182.69558326 169.21093937 183.07870841 174.1959234 183.4683876 179.18043327 C186.25291562 214.86173773 186.25291562 214.86173773 186.31591797 228.23266602 C186.32194094 229.07262336 186.32796391 229.9125807 186.33416939 230.77799129 C186.24343619 238.31860197 184.36050041 243.38688795 179.28515625 248.84375 C173.94355129 253.79963731 168.31430694 255.86363157 161 256 C153.21818778 255.48953127 147.57691257 253.53736 142 248 C136.52977387 241.09024068 135.62603857 234.17092539 134.98291016 225.65991211 C134.90106791 224.64976768 134.81922565 223.63962324 134.73490334 222.59886837 C134.47967302 219.39994056 134.23742055 216.20029622 134 213 C133.88872395 211.50309065 133.88872395 211.50309065 133.77519989 209.9759407 C133.24833616 202.79952314 132.75858775 195.62074414 132.2734375 188.44140625 C132.11954002 186.18740084 131.96545297 183.93340837 131.81118774 181.6794281 C131.41149474 175.83220873 131.01432452 169.98482083 130.61773682 164.13739014 C130.21026717 158.13640835 129.80033267 152.13559496 129.390625 146.13476562 C128.59138036 134.42333772 127.79480916 122.71172971 127 111 C115.31417417 140.49204966 115.31417417 140.49204966 103.73828125 170.02734375 C102.81839604 172.38477993 101.89847493 174.7422021 100.97851562 177.09960938 C99.62227891 180.57566572 98.26791596 184.05240676 96.91821289 187.53100586 C95.55096308 191.05268102 94.17650842 194.5714731 92.80078125 198.08984375 C92.20539299 199.63199806 92.20539299 199.63199806 91.59797668 201.20530701 C82.12777026 225.33901093 82.12777026 225.33901093 70.0625 231.5 C61.64385282 232.87447301 54.48960666 232.38477818 47 228 C41.55041301 223.94917764 38.99734768 218.19087563 36.3515625 212.13671875 C35.83468872 210.96249107 35.83468872 210.96249107 35.30737305 209.76454163 C30.8931411 199.61293676 26.96131589 189.27181453 23 178.9375 C22.17720538 176.80130986 21.35387354 174.66532658 20.5300293 172.52954102 C19.26966487 169.26203672 18.00957438 165.9944309 16.75114441 162.72618103 C12.47265017 151.61650804 8.14606603 140.52578196 3.8125 129.4375 C3.11649275 127.65553465 2.42052786 125.87355275 1.72460938 124.09155273 C0.15044485 120.06075936 -1.42470427 116.03035139 -3 112 C-4.28847831 126.09619356 -5.40139151 140.19004614 -6.26150513 154.31879425 C-6.4437959 157.30630674 -6.6304199 160.2935231 -6.81811523 163.28070068 C-7.34999427 171.75332951 -7.87635082 180.22628896 -8.39550781 188.69970703 C-8.71645509 193.9331655 -9.04378182 199.16619364 -9.37503052 204.3990097 C-9.49863267 206.37143782 -9.61984281 208.34401749 -9.73849487 210.31674957 C-11.58968681 241.06912774 -11.58968681 241.06912774 -19.68359375 249.8203125 C-25.71943043 255.01539854 -32.95466308 256.35430737 -40.78125 255.8046875 C-48.99592404 254.44382282 -54.10339333 250.74937677 -59 244 C-65.72910368 232.4643937 -62.79763366 216.45906477 -61.78417969 203.70068359 C-61.64056243 201.79699495 -61.49782109 199.89324006 -61.35588074 197.98942566 C-60.97061055 192.85867984 -60.57244292 187.72901317 -60.17125225 182.59949064 C-59.75136642 177.20975738 -59.3416302 171.81925038 -58.93023682 166.42886353 C-58.23809312 157.38200438 -57.53729087 148.33584639 -56.83154297 139.29003906 C-56.01762354 128.85607466 -55.21860109 118.42104811 -54.42728305 107.98534715 C-53.74529316 98.99667193 -53.05520438 90.00864481 -52.35843015 81.0211035 C-51.94325332 75.66573377 -51.53080956 70.31019309 -51.12569427 64.95405197 C-50.74437008 59.91843039 -50.35283176 54.88370183 -49.95363808 49.84946632 C-49.80941212 48.01000672 -49.66863596 46.1702726 -49.53170586 44.33025551 C-47.13116565 12.17304485 -47.13116565 12.17304485 -36.25 2.0625 C-24.79996319 -5.20386951 -12.13733623 -6.91473028 0 0 Z " fill="#FFFFFF" transform="translate(616,169)"/>
<path d="M0 0 C9.84788755 8.81816547 14.29029924 21.13080813 18.703125 33.2734375 C19.13423584 34.44171585 19.56534668 35.6099942 20.00952148 36.81367493 C20.94111929 39.34088635 21.87022428 41.86884584 22.79504395 44.39852905 C24.28310346 48.46855654 25.78093053 52.53494798 27.28027344 56.60083008 C28.87333831 60.92218704 30.46577307 65.24377076 32.05499268 69.56654358 C37.53515306 84.47221429 43.06437357 99.35953688 48.59866333 114.24517822 C50.24637036 118.67724526 51.89270356 123.10982186 53.53881836 127.54248047 C58.58176977 141.12111793 63.62999464 154.6977631 68.69140625 168.26953125 C69.13267853 169.45294601 69.57395081 170.63636078 70.02859497 171.8556366 C72.0602509 177.30363532 74.09302842 182.75121067 76.12792969 188.19799805 C82.06768808 204.10659041 82.06768808 204.10659041 84.94921875 212.0625 C85.32780029 213.10535156 85.70638184 214.14820313 86.09643555 215.22265625 C88.86956799 223.7466105 89.00742494 231.88602653 85 240 C80.53146774 246.52382616 74.94235872 251.45765448 67 253 C58.01760665 253.66726351 51.40332063 252.90619161 43.875 247.9375 C36.08823243 240.78659966 32.84428116 229.99949528 29.42041016 220.3112793 C28.61645112 218.03833064 27.79583304 215.77191059 26.97265625 213.50585938 C26.45215699 212.05763921 25.93259057 210.60908336 25.4140625 209.16015625 C25.17039948 208.48517593 24.92673645 207.81019562 24.6756897 207.11476135 C23.67379961 204.26542942 23 202.04589504 23 199 C-5.38 199.33 -33.76 199.66 -63 200 C-66.96 211.22 -70.92 222.44 -75 234 C-79.69281193 242.44706147 -83.35697107 247.99038457 -91.8125 252.5 C-100.95188329 253.93362875 -109.37094622 253.91136458 -117.125 248.5234375 C-122.90934335 243.86619047 -126.26473691 239.46537828 -127.48046875 232.08203125 C-127.94220917 224.65062418 -126.50058039 218.77717435 -123.94921875 211.8828125 C-123.63721527 211.01655243 -123.32521179 210.15029236 -123.00375366 209.25778198 C-122.34268557 207.42499695 -121.67762978 205.59364589 -121.00881958 203.76367188 C-120.03076151 201.08427147 -119.06561133 198.40062294 -118.10522461 195.71484375 C-116.12461123 190.18024682 -114.12637375 184.65211859 -112.125 179.125 C-111.76139374 178.11999451 -111.39778748 177.11498901 -111.02316284 176.07952881 C-104.55730168 158.21437767 -97.99416175 140.38619143 -91.39338684 122.57052612 C-91.04185043 121.62170563 -90.69031403 120.67288513 -90.328125 119.6953125 C-89.97582321 118.74447784 -89.62352142 117.79364319 -89.26054382 116.81399536 C-85.47470876 106.59093486 -81.71595322 96.35796356 -77.95956421 86.12405396 C-76.8226374 83.02760942 -75.68455631 79.9315915 -74.54614258 76.83569336 C-71.33187437 68.09214277 -68.1214634 59.34740085 -64.94560242 50.58981323 C-63.68010166 47.10193366 -62.40948832 43.61592797 -61.13827515 40.13012695 C-60.55786252 38.53407697 -59.97997269 36.93710669 -59.40493774 35.33911133 C-48.25680239 4.36303331 -48.25680239 4.36303331 -36.25 -2.4375 C-24.84669321 -7.27054214 -10.32043575 -7.57839529 0 0 Z M-21 76 C-23.7823551 83.71152669 -26.56446287 91.42314254 -29.34627056 99.13486671 C-30.63852588 102.71723215 -31.93086061 106.2995689 -33.22338867 109.88183594 C-34.47499291 113.35069155 -35.72637309 116.81962792 -36.97760963 120.28861618 C-37.45067475 121.60004828 -37.92381532 122.91145317 -38.39703941 124.22282791 C-39.06918487 126.08548741 -39.74101573 127.94826043 -40.4128418 129.81103516 C-40.79256638 130.86360504 -41.17229095 131.91617493 -41.56352234 133.00064087 C-43.71742482 138.99741325 -45.85691223 144.99935423 -48 151 C-29.85 151 -11.7 151 7 151 C4.70658499 142.42302734 4.70658499 142.42302734 1.97875977 134.06054688 C1.61150284 133.03578247 1.24424591 132.01101807 0.86585999 130.9552002 C0.47829025 129.88717163 0.09072052 128.81914307 -0.30859375 127.71875 C-0.71658707 126.58401245 -1.12458038 125.4492749 -1.54493713 124.28015137 C-2.83850844 120.68533014 -4.13791259 117.09265009 -5.4375 113.5 C-6.30572236 111.08998199 -7.1735642 108.67982685 -8.04101562 106.26953125 C-11.67688485 96.17344844 -15.32893257 86.08333777 -19 76 C-19.66 76 -20.32 76 -21 76 Z " fill="#FFFFFF" transform="translate(1412,171)"/>
<path d="M0 0 C3.15645345 2.77385304 4.79912383 4.8917811 5.3828125 9.1484375 C5.5833762 13.60095158 5.30534481 16.31813735 3.3125 20.375 C0.98186515 22.89985442 0.26412702 23.21387646 -2.9375 23.8125 C-2.77862808 25.06816269 -2.61975616 26.32382538 -2.45606995 27.61753845 C-1.85478875 33.05648313 -1.7232953 38.46384321 -1.64038086 43.93188477 C-1.62072769 45.00609177 -1.60107452 46.08029877 -1.58082581 47.1870575 C-1.51736427 50.70928305 -1.45981252 54.23157826 -1.40234375 57.75390625 C-1.35929821 60.20727675 -1.31588152 62.66064076 -1.27210999 65.11399841 C-1.15827406 71.55003977 -1.04946152 77.98615651 -0.94171143 84.42230225 C-0.83072397 90.9983849 -0.71496302 97.57438336 -0.59960938 104.15039062 C-0.37424665 117.03768247 -0.15403095 129.92505689 0.0625 142.8125 C0.28903102 142.21259624 0.51556204 141.61269249 0.74895763 140.99460983 C1.7887588 138.24409233 2.83124823 135.49460108 3.8737793 132.74511719 C4.23004143 131.80151337 4.58630356 130.85790955 4.95336151 129.88571167 C7.64615358 122.79231495 10.55113882 115.88683867 13.875 109.0625 C14.37999023 108.01956787 14.88498047 106.97663574 15.40527344 105.90209961 C21.83715592 92.88705517 29.55665219 80.80721553 39.0625 69.8125 C39.74570312 69.008125 40.42890625 68.20375 41.1328125 67.375 C59.28706921 46.55291345 85.685069 26.54767407 114.0625 23.8125 C124.90773475 23.17117672 133.82599302 23.12383722 142.5 30.125 C146.26678337 33.71920166 147.97338235 36.51514699 148.1171875 41.8359375 C147.53712949 52.85703965 140.92484645 60.39558632 134.01953125 68.37109375 C121.56308499 82.8035872 110.56048865 100.07531652 106.0625 118.8125 C106.71621582 118.79678955 107.36993164 118.7810791 108.04345703 118.76489258 C132.49143876 118.25547006 132.49143876 118.25547006 144.0625 121.8125 C145.25101562 122.16441406 146.43953125 122.51632813 147.6640625 122.87890625 C155.46581789 125.40988257 161.67396505 128.69708422 168.0625 133.8125 C168.70832031 134.28429687 169.35414063 134.75609375 170.01953125 135.2421875 C175.80251797 139.70226876 179.75929439 145.90288316 182.0625 152.8125 C183.00345009 160.89122861 181.84757852 167.16955803 177.0625 173.8125 C172.27822889 178.98161193 166.72391809 183.09683615 161.0625 187.25 C130.78750762 209.72335973 123.99049748 248.93159431 114.75 283.4375 C93.07366871 364.31424869 93.07366871 364.31424869 65.5625 382 C61.14985396 384.28512027 58.10119926 384.98897832 53.1875 385.0625 C52.15882813 385.08828125 51.13015625 385.1140625 50.0703125 385.140625 C46.59900875 384.76193732 44.81405526 383.94088072 42.0625 381.8125 C38.96014378 377.286266 39.43750772 372.06109105 40.0625 366.8125 C42.54283219 357.48292562 48.08307361 350.13968978 53.77050781 342.54736328 C74.76782525 314.35255268 83.42011479 283.77490882 92.0546875 250.2265625 C92.31378906 249.22279572 92.57289063 248.21902893 92.83984375 247.18484497 C94.11889096 242.22749691 95.38850847 237.26818222 96.63769531 232.30322266 C100.77130244 216.04132033 105.57063201 199.91258987 113 184.8125 C113.42039551 183.94367188 113.84079102 183.07484375 114.27392578 182.1796875 C117.66178252 175.31950158 121.45091498 168.93442946 126.0625 162.8125 C126.7328125 161.8946875 127.403125 160.976875 128.09375 160.03125 C130.0625 157.8125 130.0625 157.8125 133.1875 157.3125 C134.13625 157.4775 135.085 157.6425 136.0625 157.8125 C138.0625 160.8125 138.0625 160.8125 137.96484375 163.09375 C136.79168964 166.62844809 134.78572886 169.33025668 132.625 172.3125 C123.91961995 184.94365042 117.80156965 198.70508131 113.19921875 213.30859375 C112.8586293 214.38200516 112.51803986 215.45541656 112.16712952 216.56135559 C108.31208128 228.91939961 105.14696515 241.44689773 102 254 C92.6448534 291.25997173 81.87665679 322.70035621 58.87890625 353.76171875 C55.04233979 359.01740227 51.59123026 364.4053217 50.0625 370.8125 C50.39446128 373.03270123 50.39446128 373.03270123 51.0625 374.8125 C59.17046164 374.63999018 63.87817179 370.12354023 69.3203125 364.46484375 C91.04829514 339.36788819 98.12690959 304.54559816 106.51367188 273.32324219 C126.98483893 197.13650062 126.98483893 197.13650062 161.63085938 172.99633789 C166.63319089 169.44182048 169.99617817 165.87817525 172.0625 159.9375 C172.0625 153.53146343 168.15148342 148.49292566 164.0625 143.8125 C148.94270343 131.27992137 129.014848 127.44460543 109.828125 129.08984375 C83.31216093 132.23936437 59.00616798 145.37876104 41.6875 165.75 C26.12575011 185.5235416 14.67590606 207.83300174 4.88183594 230.93457031 C4.0625 232.8125 4.0625 232.8125 2.7578125 235.2421875 C0.51135487 243.54650838 4.12231257 253.30948125 5.90151978 261.49612427 C9.36209518 277.51246577 12.13584156 293.53261297 14.0625 309.8125 C14.17964355 310.74465332 14.29678711 311.67680664 14.41748047 312.63720703 C16.33181022 328.42687187 16.29454881 344.30533602 16.375 360.1875 C16.38462769 361.26050354 16.39425537 362.33350708 16.4041748 363.43902588 C16.75504595 409.11773583 16.75504595 409.11773583 2.875 424.1875 C-1.1197987 426.49560592 -4.43346617 426.69736328 -8.9375 425.8125 C-14.91909557 422.36157948 -17.69450356 417.24041598 -19.9375 410.8125 C-24.09335587 394.97046041 -25.1481736 379.24527978 -25.125 362.9375 C-25.12439575 362.14937927 -25.1237915 361.36125854 -25.12316895 360.54925537 C-25.05369092 326.88884723 -21.0588843 293.91085979 -14.31176758 260.96655273 C-13.48381712 256.9216526 -12.70371496 252.86955154 -11.9375 248.8125 C-11.7410791 247.87833252 -11.5446582 246.94416504 -11.34228516 245.98168945 C-10.11555243 238.63814784 -12.66136377 233.12778005 -15.6875 226.5 C-16.18902588 225.36498047 -16.69055176 224.22996094 -17.20727539 223.06054688 C-33.07303997 187.65452748 -54.1970996 151.00693744 -91.9375 135.8125 C-114.34060425 127.67025095 -137.60352208 125.97021449 -159.93359375 135.3046875 C-167.91350486 139.31020855 -175.77543443 144.67827299 -179.9375 152.8125 C-181.21790494 156.69029782 -181.21803385 159.85066965 -180.0625 163.8125 C-175.80890025 169.81758201 -169.94988758 174.07750142 -164.11767578 178.48046875 C-130.65181576 203.76708196 -122.7574925 245.86493843 -112.46688843 284.41802979 C-108.46518933 299.3959883 -104.46182295 314.30687767 -98.9375 328.8125 C-98.65245605 329.56176758 -98.36741211 330.31103516 -98.07373047 331.08300781 C-91.60221492 347.70512677 -81.44077123 366.53197885 -64.9375 374.8125 C-62.14276411 375.1509885 -62.14276411 375.1509885 -59.9375 374.8125 C-60.31163686 363.40132568 -65.98541061 355.86148679 -72.9074707 347.1328125 C-84.22724912 332.64215128 -93.07874318 315.96701012 -98.83203125 298.515625 C-99.08743683 297.74402039 -99.34284241 296.97241577 -99.60598755 296.1774292 C-102.24247252 288.07890488 -104.47099433 279.88116049 -106.63391113 271.64559937 C-107.333302 268.98331562 -108.0403565 266.3231587 -108.74902344 263.66333008 C-110.7379399 256.18818505 -112.70847819 248.70839801 -114.65103149 241.22106934 C-124.5539916 200.14672493 -124.5539916 200.14672493 -146.9375 164.8125 C-147.125 162.375 -147.125 162.375 -146.9375 159.8125 C-144.9375 157.8125 -144.9375 157.8125 -141.62109375 157.77734375 C-136.92706448 159.0964506 -135.39331639 161.38547509 -133 165.375 C-132.5781543 166.04466797 -132.15630859 166.71433594 -131.72167969 167.40429688 C-115.2681113 194.06230142 -107.66032664 224.14670052 -100.20800781 254.26025391 C-97.4675574 265.30072002 -94.60082692 276.27905475 -91.31640625 287.171875 C-91.03986206 288.09633423 -90.76331787 289.02079346 -90.47839355 289.9732666 C-87.72492945 298.93701825 -84.07140998 307.40688303 -79.9375 315.8125 C-79.45796875 316.79992187 -78.9784375 317.78734375 -78.484375 318.8046875 C-73.43606835 328.58215497 -66.75564842 337.47772779 -60.3671875 346.41015625 C-53.75011973 355.71310882 -47.60983375 364.91092039 -48.9375 376.8125 C-50.59944335 380.55187254 -52.48264661 382.66374972 -55.9375 384.8125 C-62.9157324 386.04034148 -69.31123103 385.1188289 -75.44140625 381.59765625 C-95.3415626 367.36546305 -105.85751747 342.8134176 -113.2734375 320.33984375 C-113.65978867 319.17398239 -114.04613983 318.00812103 -114.44419861 316.80693054 C-118.6096242 304.04185114 -122.08018933 291.10566987 -125.5 278.125 C-129.08308363 264.54124176 -132.72116276 251.01843267 -137.15625 237.68359375 C-137.4760231 236.7217366 -137.7957962 235.75987946 -138.1252594 234.76887512 C-145.08070176 214.30483841 -155.00565454 197.64901497 -172.875 184.9375 C-188.12327169 173.78617139 -188.12327169 173.78617139 -190.9375 164.8125 C-191.99448142 155.21363385 -190.8134369 148.99990693 -185.125 141.38671875 C-173.5312279 127.34205733 -156.56374554 121.10700629 -138.9375 118.8125 C-134.91083733 118.58072137 -130.90701008 118.57541541 -126.875 118.625 C-125.3290918 118.6259668 -125.3290918 118.6259668 -123.75195312 118.62695312 C-116.21957018 118.67146491 -116.21957018 118.67146491 -113.9375 119.8125 C-121.91028023 100.54587571 -129.95735362 83.53009299 -143.62109375 67.6875 C-150.51946263 59.67473041 -156.9375 51.81454539 -156.9375 40.8125 C-155.91888903 35.21013965 -153.43949123 31.50021946 -148.9296875 28.06640625 C-139.05925532 21.85384011 -127.00218627 22.83232753 -115.9375 24.9375 C-80.46013788 33.55742151 -51.45186535 60.37012766 -32.72216797 90.78613281 C-28.14867556 98.41309833 -24.1047954 106.30167677 -20.25 114.3125 C-19.90565918 115.02253174 -19.56131836 115.73256348 -19.20654297 116.46411133 C-16.79581431 121.59104943 -14.76890214 126.82779488 -12.79760742 132.13476562 C-12.52153404 132.87462708 -12.24546066 133.61448853 -11.96102142 134.37677002 C-11.28529059 136.18822401 -10.61122607 138.00029943 -9.9375 139.8125 C-9.95002808 138.97646744 -9.96255615 138.14043488 -9.97546387 137.27906799 C-10.13409766 126.64444396 -10.28785163 116.0097543 -10.4375 105.375 C-10.44937725 104.53118019 -10.4612545 103.68736038 -10.47349167 102.81797028 C-10.8378031 76.8150816 -11.09687972 50.81836633 -10.9375 24.8125 C-11.87851562 24.52246094 -12.81953125 24.23242188 -13.7890625 23.93359375 C-17.77472674 22.5143808 -18.94813047 21.56169641 -20.9375 17.8125 C-21.74274331 12.4222999 -21.60501146 8.17136262 -19.1875 3.25 C-14.07202733 -2.29176206 -6.85507698 -2.77120133 0 0 Z M-146.9375 39.8125 C-147.10908435 49.42122333 -140.97878947 55.49269063 -134.9699707 62.43481445 C-119.91637717 79.84371438 -110.46061245 100.19119715 -102.9375 121.8125 C-101.9475 121.8125 -100.9575 121.8125 -99.9375 121.8125 C-100.37091254 102.78174955 -105.9933155 74.7566845 -119.9375 60.8125 C-120.125 58.25 -120.125 58.25 -119.9375 55.8125 C-118.9375 54.8125 -118.9375 54.8125 -116.09765625 54.48046875 C-112.9375 54.8125 -112.9375 54.8125 -110.99609375 56.61328125 C-101.81559115 70.83752986 -95.8554028 86.62074369 -94.0078125 103.49609375 C-93.23913076 116.41710535 -93.23913076 116.41710535 -88.33398438 127.81787109 C-84.58647758 130.69465656 -80.41653535 132.02151369 -75.89550781 133.22753906 C-66.08358407 136.15888187 -58.12211162 144.88086767 -50.9375 151.8125 C-50.22851562 152.45832031 -49.51953125 153.10414063 -48.7890625 153.76953125 C-28.53267404 172.74439309 -15.3776895 201.62064343 -4.9375 226.8125 C-3.10511446 224.06392169 -1.8381037 221.51002684 -0.50390625 218.5 C14.37314335 185.33856037 33.90039102 148.65573473 68.0625 131.8125 C69.11912842 131.45881348 70.17575684 131.10512695 71.2644043 130.74072266 C78.16908081 128.36010938 78.16908081 128.36010938 82.48168945 122.84179688 C83.26889144 119.1110414 83.68894025 115.4874605 84 111.6875 C84.24061741 109.64923868 84.50536182 107.61509827 84.77256775 105.58016968 C84.949839 104.22763016 85.12098179 102.8742729 85.28590393 101.52017212 C87.22296417 85.92553522 93.05060925 66.52774505 104.0625 54.8125 C107.25 54.4375 107.25 54.4375 110.0625 54.8125 C111.0625 55.8125 111.0625 55.8125 111.29296875 58.1484375 C111.02606346 61.23368165 110.38168408 62.14270259 108.375 64.4375 C97.16869313 78.66189888 90.56647164 103.79013617 91.0625 121.8125 C92.0525 121.8125 93.0425 121.8125 94.0625 121.8125 C94.31306152 121.15467529 94.56362305 120.49685059 94.82177734 119.8190918 C102.68014304 99.32853689 110.76235002 80.60123385 125.0625 63.8125 C133.71610576 54.26834284 133.71610576 54.26834284 138.6875 42.6875 C137.75420299 38.39433374 135.62337684 37.30511379 132.0625 34.8125 C123.9846529 30.77357645 109.61542491 33.77121838 101.55859375 36.42578125 C60.86724241 52.56592619 34.90340384 85.68621632 17.43994141 124.61914062 C10.2461597 141.2966778 4.63840056 158.5654834 -0.34008789 176.01611328 C-0.9375 177.8125 -0.9375 177.8125 -1.9375 178.8125 C-3.60367115 178.85313832 -5.27138095 178.855221 -6.9375 178.8125 C-9.27970916 173.75675584 -10.93002068 168.67242173 -12.48535156 163.32543945 C-20.81855721 134.76818472 -32.10077918 105.21809696 -50.9375 81.8125 C-51.39543945 81.24321777 -51.85337891 80.67393555 -52.32519531 80.08740234 C-69.25730827 59.24832262 -93.2958532 37.90605766 -120.9375 33.8125 C-123.91768395 33.60291273 -126.88819694 33.5365731 -129.875 33.5 C-130.66068359 33.47099609 -131.44636719 33.44199219 -132.25585938 33.41210938 C-138.70455365 33.34195622 -142.31610873 35.19110873 -146.9375 39.8125 Z M-4.9375 262.8125 C-7.91989395 276.98071224 -10.4054222 291.13588994 -12.1875 305.5 C-12.35024414 306.79744141 -12.51298828 308.09488281 -12.68066406 309.43164062 C-14.5834074 325.27571574 -15.14873014 340.94892683 -15.17773438 356.89038086 C-15.18745116 360.10882312 -15.21858525 363.3266281 -15.25 366.54492188 C-15.82031544 392.45740265 -15.82031544 392.45740265 -5.6875 415.4375 C-5.11 415.89125 -4.5325 416.345 -3.9375 416.8125 C12.39968805 398.78525801 7.7539708 361.36731526 6.75390625 339.15625 C5.57872888 317.11713288 2.93723119 295.26720243 -1.0625 273.5625 C-1.30009033 272.25804932 -1.30009033 272.25804932 -1.54248047 270.92724609 C-2.322276 266.42381909 -2.322276 266.42381909 -4.9375 262.8125 Z " fill="#FFFFFF" transform="translate(290.9375,71.1875)"/>
<path d="M0 0 C8.42696901 8.83756379 8.98296108 18.76824455 8.95825195 30.44873047 C8.96336288 31.70179993 8.96847382 32.95486938 8.97373962 34.24591064 C8.98521423 37.66343517 8.98771623 41.08071623 8.98517632 44.49824286 C8.98410171 47.36080875 8.98900251 50.22335263 8.99378175 53.08591378 C9.00485263 59.84456496 9.00532811 66.60316056 8.99926758 73.36181641 C8.99323038 80.31236696 9.00553781 87.26271496 9.02683765 94.21323097 C9.04450539 100.2007732 9.05044685 106.18825125 9.0471999 112.17581856 C9.045395 115.74306067 9.04794326 119.31015828 9.06191444 122.87737656 C9.07692919 126.85957407 9.06747754 130.84151746 9.0559082 134.82373047 C9.06737381 136.5743428 9.06737381 136.5743428 9.07907104 138.36032104 C9.0105494 149.06720881 7.15818968 157.79272268 -0.31640625 165.765625 C-6.00151663 170.9092963 -13.51413645 171.9753311 -21 171.6484375 C-28.14414202 170.55619738 -34.45090336 167.48378973 -38.91796875 161.6875 C-44.23184297 152.79996768 -44.61334883 143.50513538 -44.59106445 133.36791992 C-44.59617538 132.1569313 -44.60128632 130.94594269 -44.60655212 129.69825745 C-44.61801211 126.40052166 -44.62053098 123.10294301 -44.61798882 119.80519271 C-44.61691259 117.03969268 -44.62181917 114.27421534 -44.62659425 111.50872022 C-44.63765836 104.97674318 -44.63814472 98.44482366 -44.63208008 91.9128418 C-44.62604612 85.20372308 -44.63834361 78.49481439 -44.65965015 71.78573149 C-44.67734162 65.99940963 -44.68325558 60.21315415 -44.6800124 54.42680627 C-44.67821095 50.98247419 -44.6807203 47.53829187 -44.69472694 44.0939846 C-44.70713995 40.2463324 -44.70026974 36.3991589 -44.6887207 32.55151367 C-44.69636444 31.43060333 -44.70400818 30.30969299 -44.71188354 29.15481567 C-44.64771475 19.42405337 -43.65053325 9.1748438 -37.18359375 1.453125 C-26.9583247 -7.78812234 -10.69547379 -9.16119585 0 0 Z " fill="#FFFFFF" transform="translate(889.31640625,253.234375)"/>
<path d="M0 0 C6.57030736 4.88658698 9.79165276 11.16661104 11.75 19 C12.61795231 29.41542772 12.03245355 38.20559385 5.76953125 46.921875 C1.19209681 52.29758167 -3.96707351 55.82784558 -11 57 C-20.57117506 57.73727539 -28.56294258 57.01830662 -36.25 50.9375 C-43.29512529 44.30017638 -45.89434131 36.13372441 -46.1875 26.6875 C-46.03327971 17.49597046 -43.72302821 10.0916548 -37.3984375 3.2734375 C-27.274948 -6.11043633 -11.82276119 -7.1486463 0 0 Z " fill="#FFFFFF" transform="translate(889,180)"/>
</svg>
